<svg width="607" height="455" viewBox="0 0 607 455" fill="none" xmlns="http://www.w3.org/2000/svg">
<g filter="url(#filter0_dd_5812_75111)">
<rect x="570.905" y="38.0957" width="378.088" height="533.793" rx="21.318" transform="rotate(90 570.905 38.0957)" fill="url(#paint0_linear_5812_75111)"/>
<rect x="570.905" y="38.0957" width="378.088" height="533.793" rx="21.318" transform="rotate(90 570.905 38.0957)" fill="url(#paint1_linear_5812_75111)" fill-opacity="0.1"/>
<rect x="570.905" y="38.0957" width="378.088" height="533.793" rx="21.318" transform="rotate(90 570.905 38.0957)" fill="url(#paint2_linear_5812_75111)"/>
</g>
<path d="M549.587 38.0957C561.361 38.0957 570.905 47.6401 570.905 59.4137L570.905 336.903L37.2263 336.903L37.2263 59.4137C37.2263 47.6401 46.7707 38.0957 58.5443 38.0957L549.587 38.0957Z" fill="white"/>
<path d="M549.587 38.0957C561.361 38.0957 570.905 47.6401 570.905 59.4137L570.905 336.903L37.2263 336.903L37.2263 59.4137C37.2263 47.6401 46.7707 38.0957 58.5443 38.0957L549.587 38.0957Z" fill="url(#paint3_linear_5812_75111)" fill-opacity="0.6"/>
<path fill-rule="evenodd" clip-rule="evenodd" d="M95.9835 363.271C97.7225 363.737 99.0893 365.103 99.5547 366.842C100.396 369.991 100.399 376.564 100.399 376.564C100.399 376.564 100.399 383.138 99.5547 386.287C99.0893 388.026 97.7225 389.392 95.9835 389.858C92.8347 390.702 80.2025 390.702 80.2025 390.702C80.2025 390.702 67.5705 390.702 64.4216 389.858C62.6826 389.392 61.316 388.026 60.8504 386.287C60.0059 383.138 60.0059 376.564 60.0059 376.564C60.0059 376.564 60.0059 369.991 60.8504 366.842C61.316 365.103 62.6826 363.737 64.4216 363.271C67.5705 362.427 80.2025 362.427 80.2025 362.427C80.2025 362.427 92.8347 362.427 95.9835 363.271ZM86.6542 376.565L76.1601 382.623V370.507L86.6542 376.565Z" fill="#E1306C"/>
<rect x="113.003" y="368.757" width="193.473" height="15.614" rx="7.80701" fill="#DADADA" fill-opacity="0.6"/>
<defs>
<filter id="filter0_dd_5812_75111" x="29.0274" y="35.4007" width="549.963" height="394.258" filterUnits="userSpaceOnUse" color-interpolation-filters="sRGB">
<feFlood flood-opacity="0" result="BackgroundImageFix"/>
<feColorMatrix in="SourceAlpha" type="matrix" values="0 0 0 0 0 0 0 0 0 0 0 0 0 0 0 0 0 0 127 0" result="hardAlpha"/>
<feMorphology radius="2.695" operator="erode" in="SourceAlpha" result="effect1_dropShadow_5812_75111"/>
<feOffset dy="5.39"/>
<feGaussianBlur stdDeviation="5.39"/>
<feColorMatrix type="matrix" values="0 0 0 0 0.25098 0 0 0 0 0.341176 0 0 0 0 0.427451 0 0 0 0.3 0"/>
<feBlend mode="normal" in2="BackgroundImageFix" result="effect1_dropShadow_5812_75111"/>
<feColorMatrix in="SourceAlpha" type="matrix" values="0 0 0 0 0 0 0 0 0 0 0 0 0 0 0 0 0 0 127 0" result="hardAlpha"/>
<feMorphology radius="2.695" operator="dilate" in="SourceAlpha" result="effect2_dropShadow_5812_75111"/>
<feOffset/>
<feColorMatrix type="matrix" values="0 0 0 0 0.25098 0 0 0 0 0.341176 0 0 0 0 0.427451 0 0 0 0.04 0"/>
<feBlend mode="normal" in2="effect1_dropShadow_5812_75111" result="effect2_dropShadow_5812_75111"/>
<feBlend mode="normal" in="SourceGraphic" in2="effect2_dropShadow_5812_75111" result="shape"/>
</filter>
<linearGradient id="paint0_linear_5812_75111" x1="759.949" y1="38.0957" x2="759.949" y2="571.889" gradientUnits="userSpaceOnUse">
<stop stop-color="white"/>
<stop offset="1" stop-color="#F2F3F5"/>
</linearGradient>
<linearGradient id="paint1_linear_5812_75111" x1="833.47" y1="560.679" x2="841.737" y2="26.9568" gradientUnits="userSpaceOnUse">
<stop offset="0.029444" stop-color="#df103f"/>
<stop offset="0.519444" stop-color="#df103f"/>
<stop offset="1" stop-color="#df103f"/>
</linearGradient>
<linearGradient id="paint2_linear_5812_75111" x1="546.654" y1="538.251" x2="1100.21" y2="70.2451" gradientUnits="userSpaceOnUse">
<stop offset="0.38491" stop-color="white"/>
<stop offset="1" stop-color="white" stop-opacity="0"/>
</linearGradient>
<linearGradient id="paint3_linear_5812_75111" x1="54.6807" y1="40.7874" x2="612.487" y2="162.523" gradientUnits="userSpaceOnUse">
<stop stop-color="#df103f"/>
<stop offset="0.525" stop-color="#df103f"/>
<stop offset="1" stop-color="#df103f"/>
</linearGradient>
</defs>
</svg>
